<svg xmlns="http://www.w3.org/2000/svg" width="22" height="22" viewBox="0 0 22 22" class="" aria-label="Twitter Icon Button"><path fill="currentColor" fill-rule="nonzero" d="M19.2 0A2.7 2.7 0 0 1 22 2.7v16.5A2.7 2.7 0 0 1 19.2 22H2.7A2.7 2.7 0 0 1 0 19.2V2.7A2.7 2.7 0 0 1 2.7 0h16.5zm-5.6 5.4a2.8 2.8 0 0 0-2.7 3.4A8.0 8.0 0 0 1 5.0 5.9a2.8 2.8 0 0 0 .875 3.7 2.8 2.8 0 0 1-1.2-.352v.038c0 1.3.974 2.5 2.2 2.7a2.7 2.7 0 0 1-.743.0c-.181 0-.357-.017-.527-.05a2.8 2.8 0 0 0 2.6 1.9 5.6 5.6 0 0 1-4.1 1.1 8.0 8.0 0 0 0 4.3 1.2c5.1 0 8.0-4.3 8.0-8.0 0-.121 0-.242-.005-.363a5.7 5.7 0 0 0 1.4-1.4 5.7 5.7 0 0 1-1.6.445 2.8 2.8 0 0 0 1.2-1.5 5.6 5.6 0 0 1-1.7.682 2.8 2.8 0 0 0-2.0-.89z"></path></svg>